<svg xmlns="http://www.w3.org/2000/svg" style="display:none">
  <!-- SIMI icon sprite. Uso: <svg><use href="#simi-escanear_qr" /></svg> -->
  <symbol id="simi-escanear_qr" viewBox="0 0 24 24">
    <path d="M4 8V5a1 1 0 0 1 1-1h3" fill="none" stroke="#D92D20" stroke-width="2.0" stroke-linecap="round" stroke-linejoin="round" />
    <path d="M16 4h3a1 1 0 0 1 1 1v3" fill="none" stroke="#D92D20" stroke-width="2.0" stroke-linecap="round" stroke-linejoin="round" />
    <path d="M20 16v3a1 1 0 0 1-1 1h-3" fill="none" stroke="#D92D20" stroke-width="2.0" stroke-linecap="round" stroke-linejoin="round" />
    <path d="M8 20H5a1 1 0 0 1-1-1v-3" fill="none" stroke="#D92D20" stroke-width="2.0" stroke-linecap="round" stroke-linejoin="round" />
    <line x1="7" y1="12" x2="17" y2="12" stroke="#111111" stroke-width="1.7" stroke-linecap="round" stroke-linejoin="round"/>
    <circle cx="12" cy="12" r="2.2" fill="none" stroke="#111111" stroke-width="1.7" stroke-linecap="round" stroke-linejoin="round"/>
  </symbol>
  <symbol id="simi-codigo_qr" viewBox="0 0 24 24">
    <rect x="3" y="3" width="6" height="6" rx="1.4" fill="none" stroke="#D92D20" stroke-width="1.8" stroke-linecap="round" stroke-linejoin="round"/>
    <rect x="15" y="3" width="6" height="6" rx="1.4" fill="none" stroke="#111111" stroke-width="1.8" stroke-linecap="round" stroke-linejoin="round"/>
    <rect x="3" y="15" width="6" height="6" rx="1.4" fill="none" stroke="#111111" stroke-width="1.8" stroke-linecap="round" stroke-linejoin="round"/>
    <rect x="16" y="16" width="2" height="2" rx="0.6" fill="none" stroke="#FF6B00" stroke-width="1.5" stroke-linecap="round" stroke-linejoin="round"/>
    <rect x="20" y="16" width="1" height="1" rx="0.3" fill="none" stroke="#111111" stroke-width="1.2" stroke-linecap="round" stroke-linejoin="round"/>
    <rect x="16" y="20" width="5" height="1" rx="0.3" fill="none" stroke="#111111" stroke-width="1.2" stroke-linecap="round" stroke-linejoin="round"/>
    <line x1="12" y1="4" x2="12" y2="8" stroke="#6B7280" stroke-width="1.5" stroke-linecap="round" stroke-linejoin="round"/>
    <line x1="12" y1="12" x2="20" y2="12" stroke="#6B7280" stroke-width="1.5" stroke-linecap="round" stroke-linejoin="round"/>
    <line x1="12" y1="16" x2="12" y2="21" stroke="#6B7280" stroke-width="1.5" stroke-linecap="round" stroke-linejoin="round"/>
  </symbol>
  <symbol id="simi-menu_digital" viewBox="0 0 24 24">
    <rect x="5" y="3" width="14" height="18" rx="2" fill="none" stroke="#111111" stroke-width="1.8" stroke-linecap="round" stroke-linejoin="round"/>
    <line x1="8" y1="8" x2="16" y2="8" stroke="#D92D20" stroke-width="2.1" stroke-linecap="round" stroke-linejoin="round"/>
    <line x1="8" y1="12" x2="16" y2="12" stroke="#FF6B00" stroke-width="2.1" stroke-linecap="round" stroke-linejoin="round"/>
    <line x1="8" y1="16" x2="13" y2="16" stroke="#FFB000" stroke-width="2.1" stroke-linecap="round" stroke-linejoin="round"/>
  </symbol>
  <symbol id="simi-editar_menu" viewBox="0 0 24 24">
    <rect x="4" y="4" width="12" height="16" rx="2" fill="none" stroke="#111111" stroke-width="1.8" stroke-linecap="round" stroke-linejoin="round"/>
    <line x1="7" y1="8" x2="13" y2="8" stroke="#6B7280" stroke-width="1.6" stroke-linecap="round" stroke-linejoin="round"/>
    <line x1="7" y1="12" x2="11" y2="12" stroke="#6B7280" stroke-width="1.6" stroke-linecap="round" stroke-linejoin="round"/>
    <path d="M14.5 18.5l4.8-4.8a1.7 1.7 0 0 0-2.4-2.4l-4.8 4.8-.6 3 3-.6z" fill="none" stroke="#D92D20" stroke-width="1.8" stroke-linecap="round" stroke-linejoin="round" />
  </symbol>
  <symbol id="simi-pedido_nuevo" viewBox="0 0 24 24">
    <rect x="4" y="5" width="13" height="15" rx="2" fill="none" stroke="#111111" stroke-width="1.8" stroke-linecap="round" stroke-linejoin="round"/>
    <path d="M8 3h5l2 2H6l2-2z" fill="none" stroke="#111111" stroke-width="1.8" stroke-linecap="round" stroke-linejoin="round" />
    <line x1="8" y1="10" x2="13" y2="10" stroke="#6B7280" stroke-width="1.5" stroke-linecap="round" stroke-linejoin="round"/>
    <line x1="8" y1="14" x2="12" y2="14" stroke="#6B7280" stroke-width="1.5" stroke-linecap="round" stroke-linejoin="round"/>
    <path d="M18 10v6" fill="none" stroke="#D92D20" stroke-width="2.0" stroke-linecap="round" stroke-linejoin="round" />
    <path d="M15 13h6" fill="none" stroke="#D92D20" stroke-width="2.0" stroke-linecap="round" stroke-linejoin="round" />
  </symbol>
  <symbol id="simi-estado_pedido" viewBox="0 0 24 24">
    <rect x="3" y="5" width="18" height="14" rx="2" fill="none" stroke="#111111" stroke-width="1.8" stroke-linecap="round" stroke-linejoin="round"/>
    <circle cx="7" cy="12" r="1.3" fill="#D92D20" stroke="#D92D20" stroke-width="1.7" stroke-linecap="round" stroke-linejoin="round"/>
    <line x1="10" y1="12" x2="14" y2="12" stroke="#FF6B00" stroke-width="1.8" stroke-linecap="round" stroke-linejoin="round"/>
    <circle cx="17" cy="12" r="1.3" fill="#FFB000" stroke="#FFB000" stroke-width="1.7" stroke-linecap="round" stroke-linejoin="round"/>
    <path d="M7 8v8M17 8v8" fill="none" stroke="#6B7280" stroke-width="1.2" stroke-linecap="round" stroke-linejoin="round" />
  </symbol>
  <symbol id="simi-reservas" viewBox="0 0 24 24">
    <rect x="3" y="5" width="18" height="16" rx="2" fill="none" stroke="#111111" stroke-width="1.8" stroke-linecap="round" stroke-linejoin="round"/>
    <line x1="3" y1="9" x2="21" y2="9" stroke="#111111" stroke-width="1.8" stroke-linecap="round" stroke-linejoin="round"/>
    <line x1="8" y1="3.5" x2="8" y2="6.5" stroke="#D92D20" stroke-width="2.0" stroke-linecap="round" stroke-linejoin="round"/>
    <line x1="16" y1="3.5" x2="16" y2="6.5" stroke="#D92D20" stroke-width="2.0" stroke-linecap="round" stroke-linejoin="round"/>
    <circle cx="8" cy="14" r="1" fill="#FFB000" stroke="#FFB000" stroke-width="1.5" stroke-linecap="round" stroke-linejoin="round"/>
    <circle cx="12" cy="14" r="1" fill="#FF6B00" stroke="#FF6B00" stroke-width="1.5" stroke-linecap="round" stroke-linejoin="round"/>
    <circle cx="16" cy="14" r="1" fill="#6B7280" stroke="#6B7280" stroke-width="1.5" stroke-linecap="round" stroke-linejoin="round"/>
    <polyline points="9 18 11 20 16 15" fill="none" stroke="#D92D20" stroke-width="1.8" stroke-linecap="round" stroke-linejoin="round"/>
  </symbol>
  <symbol id="simi-mesa_salon" viewBox="0 0 24 24">
    <path d="M5 9h14l-1 4H6L5 9z" fill="none" stroke="#111111" stroke-width="1.8" stroke-linecap="round" stroke-linejoin="round" />
    <line x1="8" y1="13" x2="7" y2="20" stroke="#111111" stroke-width="1.8" stroke-linecap="round" stroke-linejoin="round"/>
    <line x1="16" y1="13" x2="17" y2="20" stroke="#111111" stroke-width="1.8" stroke-linecap="round" stroke-linejoin="round"/>
    <line x1="6" y1="20" x2="9" y2="20" stroke="#6B7280" stroke-width="1.5" stroke-linecap="round" stroke-linejoin="round"/>
    <line x1="15" y1="20" x2="18" y2="20" stroke="#6B7280" stroke-width="1.5" stroke-linecap="round" stroke-linejoin="round"/>
    <circle cx="12" cy="6" r="2.2" fill="none" stroke="#D92D20" stroke-width="1.8" stroke-linecap="round" stroke-linejoin="round"/>
  </symbol>
  <symbol id="simi-cocina" viewBox="0 0 24 24">
    <path d="M6 9h12v10a2 2 0 0 1-2 2H8a2 2 0 0 1-2-2V9z" fill="none" stroke="#111111" stroke-width="1.8" stroke-linecap="round" stroke-linejoin="round" />
    <path d="M8 9V7a4 4 0 0 1 8 0v2" fill="none" stroke="#D92D20" stroke-width="1.8" stroke-linecap="round" stroke-linejoin="round" />
    <line x1="9" y1="13" x2="15" y2="13" stroke="#6B7280" stroke-width="1.6" stroke-linecap="round" stroke-linejoin="round"/>
    <line x1="9" y1="17" x2="13" y2="17" stroke="#6B7280" stroke-width="1.6" stroke-linecap="round" stroke-linejoin="round"/>
  </symbol>
  <symbol id="simi-campana_cocina" viewBox="0 0 24 24">
    <path d="M4 16h16" fill="none" stroke="#111111" stroke-width="1.8" stroke-linecap="round" stroke-linejoin="round" />
    <path d="M6 16a6 6 0 0 1 12 0" fill="none" stroke="#D92D20" stroke-width="1.8" stroke-linecap="round" stroke-linejoin="round" />
    <line x1="12" y1="7" x2="12" y2="5" stroke="#111111" stroke-width="1.8" stroke-linecap="round" stroke-linejoin="round"/>
    <path d="M9 20h6" fill="none" stroke="#111111" stroke-width="1.8" stroke-linecap="round" stroke-linejoin="round" />
    <circle cx="12" cy="7" r="1.1" fill="#FFB000" stroke="#FFB000" stroke-width="1.5" stroke-linecap="round" stroke-linejoin="round"/>
  </symbol>
  <symbol id="simi-delivery" viewBox="0 0 24 24">
    <rect x="3" y="8" width="11" height="7" rx="1.5" fill="none" stroke="#111111" stroke-width="1.8" stroke-linecap="round" stroke-linejoin="round"/>
    <path d="M14 10h3l3 3v2h-6v-5z" fill="none" stroke="#111111" stroke-width="1.8" stroke-linecap="round" stroke-linejoin="round" />
    <circle cx="7" cy="18" r="1.8" fill="none" stroke="#D92D20" stroke-width="1.8" stroke-linecap="round" stroke-linejoin="round"/>
    <circle cx="17" cy="18" r="1.8" fill="none" stroke="#D92D20" stroke-width="1.8" stroke-linecap="round" stroke-linejoin="round"/>
    <line x1="4" y1="5" x2="12" y2="5" stroke="#FF6B00" stroke-width="1.8" stroke-linecap="round" stroke-linejoin="round"/>
    <line x1="5" y1="3" x2="10" y2="3" stroke="#FFB000" stroke-width="1.6" stroke-linecap="round" stroke-linejoin="round"/>
  </symbol>
  <symbol id="simi-recojo_local" viewBox="0 0 24 24">
    <path d="M4 10h16l-1 11H5L4 10z" fill="none" stroke="#111111" stroke-width="1.8" stroke-linecap="round" stroke-linejoin="round" />
    <path d="M8 10a4 4 0 0 1 8 0" fill="none" stroke="#D92D20" stroke-width="1.8" stroke-linecap="round" stroke-linejoin="round" />
    <path d="M9 5h6l2 5H7l2-5z" fill="none" stroke="#FF6B00" stroke-width="1.8" stroke-linecap="round" stroke-linejoin="round" />
    <polyline points="10 16 12 18 16 14" fill="none" stroke="#FFB000" stroke-width="1.8" stroke-linecap="round" stroke-linejoin="round"/>
  </symbol>
  <symbol id="simi-pagos" viewBox="0 0 24 24">
    <rect x="3" y="6" width="18" height="12" rx="2" fill="none" stroke="#111111" stroke-width="1.8" stroke-linecap="round" stroke-linejoin="round"/>
    <line x1="3" y1="10" x2="21" y2="10" stroke="#111111" stroke-width="1.8" stroke-linecap="round" stroke-linejoin="round"/>
    <rect x="6" y="14" width="4" height="1.5" rx="0.4" fill="#D92D20" stroke="#D92D20" stroke-width="1.4" stroke-linecap="round" stroke-linejoin="round"/>
    <circle cx="17" cy="14" r="1.6" fill="none" stroke="#FFB000" stroke-width="1.5" stroke-linecap="round" stroke-linejoin="round"/>
  </symbol>
  <symbol id="simi-billetera" viewBox="0 0 24 24">
    <path d="M5 7h13a2 2 0 0 1 2 2v8a2 2 0 0 1-2 2H5a2 2 0 0 1-2-2V9a2 2 0 0 1 2-2z" fill="none" stroke="#111111" stroke-width="1.8" stroke-linecap="round" stroke-linejoin="round" />
    <path d="M6 7l9-3 2 3" fill="none" stroke="#D92D20" stroke-width="1.8" stroke-linecap="round" stroke-linejoin="round" />
    <rect x="15" y="11" width="5" height="4" rx="1" fill="none" stroke="#FF6B00" stroke-width="1.6" stroke-linecap="round" stroke-linejoin="round"/>
    <circle cx="17" cy="13" r="0.6" fill="#FF6B00" stroke="#FF6B00" stroke-width="1.2" stroke-linecap="round" stroke-linejoin="round"/>
  </symbol>
  <symbol id="simi-clientes" viewBox="0 0 24 24">
    <circle cx="9" cy="8" r="3" fill="none" stroke="#111111" stroke-width="1.8" stroke-linecap="round" stroke-linejoin="round"/>
    <path d="M3.5 20a5.5 5.5 0 0 1 11 0" fill="none" stroke="#111111" stroke-width="1.8" stroke-linecap="round" stroke-linejoin="round" />
    <circle cx="17" cy="9" r="2.2" fill="none" stroke="#D92D20" stroke-width="1.7" stroke-linecap="round" stroke-linejoin="round"/>
    <path d="M14.5 19a4.2 4.2 0 0 1 6 0" fill="none" stroke="#D92D20" stroke-width="1.7" stroke-linecap="round" stroke-linejoin="round" />
  </symbol>
  <symbol id="simi-personal" viewBox="0 0 24 24">
    <circle cx="12" cy="7" r="3" fill="none" stroke="#111111" stroke-width="1.8" stroke-linecap="round" stroke-linejoin="round"/>
    <path d="M6 21v-2a6 6 0 0 1 12 0v2" fill="none" stroke="#111111" stroke-width="1.8" stroke-linecap="round" stroke-linejoin="round" />
    <path d="M9 13l3 3 3-3" fill="none" stroke="#D92D20" stroke-width="1.8" stroke-linecap="round" stroke-linejoin="round" />
    <line x1="12" y1="16" x2="12" y2="21" stroke="#FF6B00" stroke-width="1.6" stroke-linecap="round" stroke-linejoin="round"/>
  </symbol>
  <symbol id="simi-dashboard" viewBox="0 0 24 24">
    <rect x="3" y="4" width="18" height="16" rx="2" fill="none" stroke="#111111" stroke-width="1.8" stroke-linecap="round" stroke-linejoin="round"/>
    <rect x="6" y="7" width="5" height="4" rx="1" fill="none" stroke="#D92D20" stroke-width="1.6" stroke-linecap="round" stroke-linejoin="round"/>
    <rect x="13" y="7" width="5" height="8" rx="1" fill="none" stroke="#111111" stroke-width="1.6" stroke-linecap="round" stroke-linejoin="round"/>
    <line x1="6" y1="15" x2="10" y2="15" stroke="#FF6B00" stroke-width="1.8" stroke-linecap="round" stroke-linejoin="round"/>
    <line x1="6" y1="18" x2="15" y2="18" stroke="#FFB000" stroke-width="1.8" stroke-linecap="round" stroke-linejoin="round"/>
  </symbol>
  <symbol id="simi-reportes" viewBox="0 0 24 24">
    <rect x="5" y="3" width="14" height="18" rx="2" fill="none" stroke="#111111" stroke-width="1.8" stroke-linecap="round" stroke-linejoin="round"/>
    <line x1="8" y1="8" x2="16" y2="8" stroke="#6B7280" stroke-width="1.5" stroke-linecap="round" stroke-linejoin="round"/>
    <line x1="8" y1="12" x2="14" y2="12" stroke="#6B7280" stroke-width="1.5" stroke-linecap="round" stroke-linejoin="round"/>
    <line x1="8" y1="16" x2="11" y2="16" stroke="#6B7280" stroke-width="1.5" stroke-linecap="round" stroke-linejoin="round"/>
    <path d="M14 18v-4M17 18v-7M11 18v-2" fill="none" stroke="#D92D20" stroke-width="1.8" stroke-linecap="round" stroke-linejoin="round" />
  </symbol>
  <symbol id="simi-analitica" viewBox="0 0 24 24">
    <path d="M4 19h16" fill="none" stroke="#111111" stroke-width="1.8" stroke-linecap="round" stroke-linejoin="round" />
    <path d="M5 16l4-4 3 3 6-8" fill="none" stroke="#D92D20" stroke-width="2.0" stroke-linecap="round" stroke-linejoin="round" />
    <circle cx="9" cy="12" r="1.1" fill="#FF6B00" stroke="#FF6B00" stroke-width="1.5" stroke-linecap="round" stroke-linejoin="round"/>
    <circle cx="12" cy="15" r="1.1" fill="#FFB000" stroke="#FFB000" stroke-width="1.5" stroke-linecap="round" stroke-linejoin="round"/>
    <circle cx="18" cy="7" r="1.1" fill="#D92D20" stroke="#D92D20" stroke-width="1.5" stroke-linecap="round" stroke-linejoin="round"/>
  </symbol>
  <symbol id="simi-notificaciones" viewBox="0 0 24 24">
    <path d="M6 17h12l-1.4-2.4V11a4.6 4.6 0 0 0-9.2 0v3.6L6 17z" fill="none" stroke="#111111" stroke-width="1.8" stroke-linecap="round" stroke-linejoin="round" />
    <path d="M10 20a2 2 0 0 0 4 0" fill="none" stroke="#111111" stroke-width="1.8" stroke-linecap="round" stroke-linejoin="round" />
    <circle cx="18" cy="6" r="2.2" fill="#D92D20" stroke="#D92D20" stroke-width="1.7" stroke-linecap="round" stroke-linejoin="round"/>
  </symbol>
  <symbol id="simi-promociones" viewBox="0 0 24 24">
    <path d="M4 12l8-8 8 8-8 8-8-8z" fill="none" stroke="#111111" stroke-width="1.8" stroke-linecap="round" stroke-linejoin="round" />
    <circle cx="10" cy="10" r="1" fill="none" stroke="#D92D20" stroke-width="1.5" stroke-linecap="round" stroke-linejoin="round"/>
    <circle cx="14" cy="14" r="1" fill="none" stroke="#D92D20" stroke-width="1.5" stroke-linecap="round" stroke-linejoin="round"/>
    <line x1="9" y1="15" x2="15" y2="9" stroke="#FF6B00" stroke-width="1.8" stroke-linecap="round" stroke-linejoin="round"/>
  </symbol>
  <symbol id="simi-inventario" viewBox="0 0 24 24">
    <path d="M4 7l8-4 8 4-8 4-8-4z" fill="none" stroke="#111111" stroke-width="1.8" stroke-linecap="round" stroke-linejoin="round" />
    <path d="M4 7v10l8 4 8-4V7" fill="none" stroke="#111111" stroke-width="1.8" stroke-linecap="round" stroke-linejoin="round" />
    <path d="M12 11v10" fill="none" stroke="#111111" stroke-width="1.8" stroke-linecap="round" stroke-linejoin="round" />
    <path d="M8 5l8 4" fill="none" stroke="#D92D20" stroke-width="1.8" stroke-linecap="round" stroke-linejoin="round" />
  </symbol>
  <symbol id="simi-horarios" viewBox="0 0 24 24">
    <circle cx="12" cy="12" r="8" fill="none" stroke="#111111" stroke-width="1.8" stroke-linecap="round" stroke-linejoin="round"/>
    <path d="M12 7v5l3 2" fill="none" stroke="#D92D20" stroke-width="2.0" stroke-linecap="round" stroke-linejoin="round" />
    <path d="M4 4l2.5 2.5M20 4l-2.5 2.5" fill="none" stroke="#FF6B00" stroke-width="1.6" stroke-linecap="round" stroke-linejoin="round" />
  </symbol>
  <symbol id="simi-sincronizar" viewBox="0 0 24 24">
    <path d="M7 7a7 7 0 0 1 11 2" fill="none" stroke="#111111" stroke-width="1.8" stroke-linecap="round" stroke-linejoin="round" />
    <path d="M18 4v5h-5" fill="none" stroke="#D92D20" stroke-width="1.8" stroke-linecap="round" stroke-linejoin="round" />
    <path d="M17 17a7 7 0 0 1-11-2" fill="none" stroke="#111111" stroke-width="1.8" stroke-linecap="round" stroke-linejoin="round" />
    <path d="M6 20v-5h5" fill="none" stroke="#FF6B00" stroke-width="1.8" stroke-linecap="round" stroke-linejoin="round" />
  </symbol>
  <symbol id="simi-integraciones" viewBox="0 0 24 24">
    <circle cx="6" cy="12" r="2.4" fill="none" stroke="#D92D20" stroke-width="1.8" stroke-linecap="round" stroke-linejoin="round"/>
    <circle cx="18" cy="6" r="2.4" fill="none" stroke="#FFB000" stroke-width="1.8" stroke-linecap="round" stroke-linejoin="round"/>
    <circle cx="18" cy="18" r="2.4" fill="none" stroke="#FF6B00" stroke-width="1.8" stroke-linecap="round" stroke-linejoin="round"/>
    <line x1="8.2" y1="11" x2="15.7" y2="7.2" stroke="#111111" stroke-width="1.6" stroke-linecap="round" stroke-linejoin="round"/>
    <line x1="8.2" y1="13" x2="15.7" y2="16.8" stroke="#111111" stroke-width="1.6" stroke-linecap="round" stroke-linejoin="round"/>
  </symbol>
  <symbol id="simi-seguridad" viewBox="0 0 24 24">
    <path d="M12 3l8 4v5c0 5-3.4 7.6-8 9-4.6-1.4-8-4-8-9V7l8-4z" fill="none" stroke="#111111" stroke-width="1.8" stroke-linecap="round" stroke-linejoin="round" />
    <polyline points="8.5 12.5 11 15 16 10" fill="none" stroke="#D92D20" stroke-width="2.0" stroke-linecap="round" stroke-linejoin="round"/>
  </symbol>
  <symbol id="simi-ajustes" viewBox="0 0 24 24">
    <circle cx="12" cy="12" r="3" fill="none" stroke="#111111" stroke-width="1.8" stroke-linecap="round" stroke-linejoin="round"/>
    <path d="M12 2.8v3M12 18.2v3M4.9 4.9l2.1 2.1M17 17l2.1 2.1M2.8 12h3M18.2 12h3M4.9 19.1l2.1-2.1M17 7l2.1-2.1" fill="none" stroke="#D92D20" stroke-width="1.8" stroke-linecap="round" stroke-linejoin="round" />
  </symbol>
  <symbol id="simi-soporte" viewBox="0 0 24 24">
    <circle cx="12" cy="12" r="8" fill="none" stroke="#111111" stroke-width="1.8" stroke-linecap="round" stroke-linejoin="round"/>
    <path d="M9.5 9.5a2.5 2.5 0 1 1 3.2 2.4c-.9.4-1.7 1-1.7 2.1" fill="none" stroke="#D92D20" stroke-width="1.8" stroke-linecap="round" stroke-linejoin="round" />
    <circle cx="12" cy="17" r="0.7" fill="#FF6B00" stroke="#FF6B00" stroke-width="1.4" stroke-linecap="round" stroke-linejoin="round"/>
  </symbol>
  <symbol id="simi-sucursal" viewBox="0 0 24 24">
    <path d="M4 10h16l-1.5-5h-13L4 10z" fill="none" stroke="#111111" stroke-width="1.8" stroke-linecap="round" stroke-linejoin="round" />
    <path d="M5 10v10h14V10" fill="none" stroke="#111111" stroke-width="1.8" stroke-linecap="round" stroke-linejoin="round" />
    <path d="M9 20v-6h6v6" fill="none" stroke="#D92D20" stroke-width="1.8" stroke-linecap="round" stroke-linejoin="round" />
    <line x1="7" y1="14" x2="7" y2="16" stroke="#6B7280" stroke-width="1.5" stroke-linecap="round" stroke-linejoin="round"/>
    <line x1="17" y1="14" x2="17" y2="16" stroke="#6B7280" stroke-width="1.5" stroke-linecap="round" stroke-linejoin="round"/>
  </symbol>
  <symbol id="simi-sitio_web" viewBox="0 0 24 24">
    <circle cx="12" cy="12" r="8" fill="none" stroke="#111111" stroke-width="1.8" stroke-linecap="round" stroke-linejoin="round"/>
    <path d="M4 12h16M12 4a12 12 0 0 1 0 16M12 4a12 12 0 0 0 0 16" fill="none" stroke="#111111" stroke-width="1.5" stroke-linecap="round" stroke-linejoin="round" />
    <path d="M8 8h8" fill="none" stroke="#D92D20" stroke-width="1.8" stroke-linecap="round" stroke-linejoin="round" />
    <path d="M8 16h8" fill="none" stroke="#FF6B00" stroke-width="1.8" stroke-linecap="round" stroke-linejoin="round" />
  </symbol>
  <symbol id="simi-app_movil" viewBox="0 0 24 24">
    <rect x="7" y="2.8" width="10" height="18.4" rx="2.4" fill="none" stroke="#111111" stroke-width="1.8" stroke-linecap="round" stroke-linejoin="round"/>
    <line x1="10" y1="6" x2="14" y2="6" stroke="#6B7280" stroke-width="1.3" stroke-linecap="round" stroke-linejoin="round"/>
    <circle cx="12" cy="18" r="0.8" fill="#D92D20" stroke="#D92D20" stroke-width="1.5" stroke-linecap="round" stroke-linejoin="round"/>
    <path d="M9.5 11.5l2 2 3-4" fill="none" stroke="#FF6B00" stroke-width="1.8" stroke-linecap="round" stroke-linejoin="round" />
  </symbol>
  <symbol id="simi-inicio" viewBox="0 0 24 24">
    <path d="M4 11l8-7 8 7" fill="none" stroke="#111111" stroke-width="1.8" stroke-linecap="round" stroke-linejoin="round" />
    <path d="M6 10v10h12V10" fill="none" stroke="#111111" stroke-width="1.8" stroke-linecap="round" stroke-linejoin="round" />
    <path d="M10 20v-6h4v6" fill="none" stroke="#D92D20" stroke-width="1.8" stroke-linecap="round" stroke-linejoin="round" />
  </symbol>
  <symbol id="simi-buscar" viewBox="0 0 24 24">
    <circle cx="10.5" cy="10.5" r="5.5" fill="none" stroke="#111111" stroke-width="1.8" stroke-linecap="round" stroke-linejoin="round"/>
    <line x1="15" y1="15" x2="20" y2="20" stroke="#D92D20" stroke-width="2.0" stroke-linecap="round" stroke-linejoin="round"/>
  </symbol>
  <symbol id="simi-perfil" viewBox="0 0 24 24">
    <circle cx="12" cy="8" r="3.5" fill="none" stroke="#111111" stroke-width="1.8" stroke-linecap="round" stroke-linejoin="round"/>
    <path d="M5 20a7 7 0 0 1 14 0" fill="none" stroke="#111111" stroke-width="1.8" stroke-linecap="round" stroke-linejoin="round" />
    <circle cx="17.5" cy="6" r="1.4" fill="#D92D20" stroke="#D92D20" stroke-width="1.6" stroke-linecap="round" stroke-linejoin="round"/>
  </symbol>
  <symbol id="simi-carrito" viewBox="0 0 24 24">
    <path d="M3.5 5h2l2 10h10l2-7H7" fill="none" stroke="#111111" stroke-width="1.8" stroke-linecap="round" stroke-linejoin="round" />
    <circle cx="9" cy="19" r="1.5" fill="none" stroke="#D92D20" stroke-width="1.8" stroke-linecap="round" stroke-linejoin="round"/>
    <circle cx="17" cy="19" r="1.5" fill="none" stroke="#D92D20" stroke-width="1.8" stroke-linecap="round" stroke-linejoin="round"/>
    <path d="M10 11h5" fill="none" stroke="#FF6B00" stroke-width="1.8" stroke-linecap="round" stroke-linejoin="round" />
  </symbol>
  <symbol id="simi-mozo" viewBox="0 0 24 24">
    <circle cx="12" cy="6.5" r="2.5" fill="none" stroke="#111111" stroke-width="1.8" stroke-linecap="round" stroke-linejoin="round"/>
    <path d="M7 21v-3.5a5 5 0 0 1 10 0V21" fill="none" stroke="#111111" stroke-width="1.8" stroke-linecap="round" stroke-linejoin="round" />
    <path d="M9 13h6l-1 4h-4l-1-4z" fill="none" stroke="#D92D20" stroke-width="1.8" stroke-linecap="round" stroke-linejoin="round" />
    <path d="M17 12h3v7h-3" fill="none" stroke="#FF6B00" stroke-width="1.8" stroke-linecap="round" stroke-linejoin="round" />
  </symbol>
  <symbol id="simi-exito" viewBox="0 0 24 24">
    <circle cx="12" cy="12" r="8" fill="none" stroke="#16A34A" stroke-width="1.8" stroke-linecap="round" stroke-linejoin="round"/>
    <polyline points="8 12.5 11 15.5 16.5 9" fill="none" stroke="#16A34A" stroke-width="2.2" stroke-linecap="round" stroke-linejoin="round"/>
  </symbol>
  <symbol id="simi-advertencia" viewBox="0 0 24 24">
    <path d="M12 4l9 16H3L12 4z" fill="none" stroke="#F59E0B" stroke-width="1.8" stroke-linecap="round" stroke-linejoin="round" />
    <line x1="12" y1="10" x2="12" y2="14" stroke="#F59E0B" stroke-width="2.1" stroke-linecap="round" stroke-linejoin="round"/>
    <circle cx="12" cy="17" r="0.6" fill="#F59E0B" stroke="#F59E0B" stroke-width="1.3" stroke-linecap="round" stroke-linejoin="round"/>
  </symbol>
  <symbol id="simi-error" viewBox="0 0 24 24">
    <circle cx="12" cy="12" r="8" fill="none" stroke="#DC2626" stroke-width="1.8" stroke-linecap="round" stroke-linejoin="round"/>
    <line x1="9" y1="9" x2="15" y2="15" stroke="#DC2626" stroke-width="2.1" stroke-linecap="round" stroke-linejoin="round"/>
    <line x1="15" y1="9" x2="9" y2="15" stroke="#DC2626" stroke-width="2.1" stroke-linecap="round" stroke-linejoin="round"/>
  </symbol>
  <symbol id="simi-informacion" viewBox="0 0 24 24">
    <circle cx="12" cy="12" r="8" fill="none" stroke="#2563EB" stroke-width="1.8" stroke-linecap="round" stroke-linejoin="round"/>
    <line x1="12" y1="11" x2="12" y2="16" stroke="#2563EB" stroke-width="2.1" stroke-linecap="round" stroke-linejoin="round"/>
    <circle cx="12" cy="8" r="0.6" fill="#2563EB" stroke="#2563EB" stroke-width="1.3" stroke-linecap="round" stroke-linejoin="round"/>
  </symbol>
  <symbol id="simi-confianza" viewBox="0 0 24 24">
    <path d="M12 3l7 3.5v5.5c0 4.5-3 7.1-7 8.5-4-1.4-7-4-7-8.5V6.5L12 3z" fill="none" stroke="#6B7280" stroke-width="1.8" stroke-linecap="round" stroke-linejoin="round" />
    <polyline points="8.5 12 11 14.5 15.8 9.8" fill="none" stroke="#111111" stroke-width="2.0" stroke-linecap="round" stroke-linejoin="round"/>
    <circle cx="18" cy="6" r="1.6" fill="#D92D20" stroke="#D92D20" stroke-width="1.5" stroke-linecap="round" stroke-linejoin="round"/>
  </symbol>
  <symbol id="simi-gestionar" viewBox="0 0 24 24">
    <line x1="5" y1="7" x2="19" y2="7" stroke="#FF6B00" stroke-width="2.4" stroke-linecap="round" stroke-linejoin="round"/>
    <line x1="5" y1="12" x2="19" y2="12" stroke="#D92D20" stroke-width="2.4" stroke-linecap="round" stroke-linejoin="round"/>
    <line x1="5" y1="17" x2="19" y2="17" stroke="#FFB000" stroke-width="2.4" stroke-linecap="round" stroke-linejoin="round"/>
  </symbol>
</svg>
