<svg xmlns="http://www.w3.org/2000/svg" width="32" height="32" viewBox="0 0 32 32" fill="none" role="img" aria-labelledby="title desc">
  <title id="title">SIMI Mobile — Billetera</title>
  <desc id="desc">Saldo, caja y transacciones.</desc>
  <rect x="1" y="1" width="30" height="30" rx="8" fill="#FFF4E5" stroke="#F6E6CE" stroke-width="1"/>
  <path d="M5 5h7" stroke="#D92D20" stroke-width="1.5" stroke-linecap="round"/>
  <g transform="translate(4 4)">
    <path d="M5 7h13a2 2 0 0 1 2 2v8a2 2 0 0 1-2 2H5a2 2 0 0 1-2-2V9a2 2 0 0 1 2-2z" fill="none" stroke="#111111" stroke-width="1.8" stroke-linecap="round" stroke-linejoin="round" />
    <path d="M6 7l9-3 2 3" fill="none" stroke="#D92D20" stroke-width="1.8" stroke-linecap="round" stroke-linejoin="round" />
    <rect x="15" y="11" width="5" height="4" rx="1" fill="none" stroke="#FF6B00" stroke-width="1.6" stroke-linecap="round" stroke-linejoin="round"/>
    <circle cx="17" cy="13" r="0.6" fill="#FF6B00" stroke="#FF6B00" stroke-width="1.2" stroke-linecap="round" stroke-linejoin="round"/>
  </g>
</svg>
